<svg xmlns="http://www.w3.org/2000/svg" preserveAspectRatio="xMidYMid meet" width="426" height="422" viewBox="0 0 426 422"><defs><style>.cls-1{fill:#fff;}</style></defs><g id="PNG"><circle cx="218.5" cy="209.5" r="188.5"/><circle class="cls-1" cx="218.5" cy="209.5" r="187.5"/><circle cx="218.5" cy="209.5" r="178.5"/><path class="cls-1" d="M68,200.5225,105.0386,125.5l19.7124-2.7368-38.0435,77.76Zm14.9409-41.1817q-6.153.25-9.542-2.8613a11.31,11.31,0,0,1-3.7041-7.9,20.529,20.529,0,0,1,2.5113-10.4512,31.3207,31.3207,0,0,1,9.04-10.5132,53.9653,53.9653,0,0,1,15.8828-8.1494q9.6664-3.2944,23.1021-3.2968,9.54,0,15.5688,2.4882a20.8624,20.8624,0,0,1,9.1025,6.6563,16.8562,16.8562,0,0,1,3.3272,9.3935,26.2633,26.2633,0,0,1-1.8833,10.7618,38.8019,38.8019,0,0,1-6.4658,10.7622,49.73,49.73,0,0,1-10.4839,9.3935,54.0892,54.0892,0,0,1-30.51,9.1446q-2.7635,0-3.3271-.4356c-.377-.29-.3575-.58.0625-.8711a8.1139,8.1139,0,0,1,1.8833-.8706,6.9787,6.9787,0,0,1,2.26-.4355q4.77,0,10.107-3.9815a51.1476,51.1476,0,0,0,9.9189-9.9531,68.2455,68.2455,0,0,0,7.7842-12.877,42.55,42.55,0,0,0,3.8926-12.8774q.6884-5.9715-1.8208-9.9531-2.513-3.98-9.4165-3.9815a32.5357,32.5357,0,0,0-13.56,2.6753,36.8367,36.8367,0,0,0-10.2329,6.7808,41.0685,41.0685,0,0,0-7.2192,9.02,52.817,52.817,0,0,0-4.4571,9.4556,40.2626,40.2626,0,0,0-2.0088,8.0869Q82.3113,158.0965,82.9409,159.3408Z"/><path class="cls-1" d="M150.7407,194.7993a4.1161,4.1161,0,0,0,2.5738-1.3061,25.23,25.23,0,0,0,3.0131-3.3594q1.5689-2.0531,3.2647-4.728t3.3271-5.5362q3.767-6.5933,7.91-14.93-.5033,1.9914-1.57,5.35t-2.7622,7.34q-1.6949,3.9836-3.8921,8.0249a42.1451,42.1451,0,0,1-5.022,7.34,25.77,25.77,0,0,1-6.2153,5.35,14.0345,14.0345,0,0,1-7.4078,2.0527q-6.153,0-8.914-3.67a14.3108,14.3108,0,0,1-2.6367-9.2065,32.858,32.858,0,0,1,2.8247-11.9439,44.9773,44.9773,0,0,1,7.4707-11.9438,41.1923,41.1923,0,0,1,11.4253-9.207,29.6734,29.6734,0,0,1,14.5644-3.67,15.03,15.03,0,0,1,7.4077,1.6792,16.6688,16.6688,0,0,1,4.771,3.795,14.9406,14.9406,0,0,1,3.1392,5.4741l-2.0088.7466a15.4945,15.4945,0,0,0-2.26-3.9815,15.2729,15.2729,0,0,0-2.6993-2.7368,5.2837,5.2837,0,0,0-3.3271-1.2441q-3.2665,0-6.9058,2.9858a43.5889,43.5889,0,0,0-7.0307,7.4649,70.8937,70.8937,0,0,0-6.1524,9.7045,60.943,60.943,0,0,0-4.206,9.7046,22.1728,22.1728,0,0,0-1.3184,7.4649Q148.2277,194.8,150.7407,194.7993Zm14.69-19.16q1.8829-3.98,3.8291-7.9t3.5786-7.1538q1.8831-3.7324,3.5156-7.0918l19.8374-2.7369q-1.6334,3.1114-3.5156,7.0914-1.7594,3.36-3.9546,7.9628-2.1987,4.6041-5.085,10.2022-2.89,5.5986-4.583,9.269-1.6948,3.671-2.4482,5.8472a5.8879,5.8879,0,0,0-.5025,3.0483,1.25,1.25,0,0,0,1.3814.8711q2.1336,0,5.022-2.8618a50.41,50.41,0,0,0,5.3989-6.3452q3.0132-4.1052,6.1523-9.2065a54.8141,54.8141,0,0,1-6.6543,11.9438,43.8783,43.8783,0,0,1-3.6411,4.3545,27.83,27.83,0,0,1-4.4575,3.7944,22.447,22.447,0,0,1-5.2729,2.6753,17.7963,17.7963,0,0,1-5.9639.9951q-5.9034,0-7.7847-2.3637a7.5142,7.5142,0,0,1-1.3808-5.9722,29.483,29.483,0,0,1,2.5107-8.0244Q163.4194,179.6225,165.4307,175.6392Z"/><path class="cls-1" d="M209.5,198.2832a27.9827,27.9827,0,0,0,15.6314-4.728,68.01,68.01,0,0,0,14-12.5659,45.1942,45.1942,0,0,1-6.09,7.4028,46.3067,46.3067,0,0,1-7.91,6.2827,41.14,41.14,0,0,1-9.2911,4.3545,32.7775,32.7775,0,0,1-10.2324,1.6177q-8.1636,0-12.3047-3.67a13.8026,13.8026,0,0,1-4.708-9.2691,24.8987,24.8987,0,0,1,2.0713-12.0058,39.3606,39.3606,0,0,1,7.91-12.0064,43.6352,43.6352,0,0,1,12.8066-9.269,37.9176,37.9176,0,0,1,16.8242-3.67q6.2784,0,9.4805,2.4258a9.3887,9.3887,0,0,1,3.8281,5.8477,12.8941,12.8941,0,0,1-1.0039,7.34,18.2173,18.2173,0,0,1-5.0215,6.8433,21.2193,21.2193,0,0,1-8.35,4.292,20.6892,20.6892,0,0,1-10.9863-.2486,39.3223,39.3223,0,0,0,5.8379-7.1538,57.3243,57.3243,0,0,0,4.3945-8.0249,28.1854,28.1854,0,0,0,2.1348-6.5942q.4365-2.735-.8164-2.7373-1.7607,0-5.0215,3.3594a65.5085,65.5085,0,0,0-6.7813,8.46,107.451,107.451,0,0,0-6.5913,10.9482,57.2243,57.2243,0,0,0-4.52,10.9488,16.9694,16.9694,0,0,0-.6274,8.46Q204.978,198.2827,209.5,198.2832Z"/><path class="cls-1" d="M239.8838,175.6392q2.0068-3.98,3.8926-7.9,1.8837-3.9192,3.5156-7.1538,1.7563-3.7324,3.5156-7.0918l19.8379-2.7369q-1.5074,3.1114-3.3906,7.0914-1.6334,3.36-3.9551,7.9628-2.3247,4.6041-5.21,10.2022-2.89,5.5986-4.583,9.269-1.6947,3.671-2.4482,5.8472a5.886,5.886,0,0,0-.502,3.0483,1.2485,1.2485,0,0,0,1.3809.8711q2.1328,0,5.0225-2.8618a50.5315,50.5315,0,0,0,5.3984-6.3452q3.0132-4.1052,6.1523-9.2065a58.1275,58.1275,0,0,1-6.5293,11.9438,43.8722,43.8722,0,0,1-3.6406,4.3545,27.8478,27.8478,0,0,1-4.457,3.7944,22.4794,22.4794,0,0,1-5.2734,2.6753,17.798,17.798,0,0,1-5.9639.9951q-5.9034,0-7.7842-2.3637a7.7008,7.7008,0,0,1-1.4443-5.9722,27.9069,27.9069,0,0,1,2.4482-8.0244Q237.8731,179.6225,239.8838,175.6392ZM256.96,141.3008q2.5092-4.8524,4.2685-8.1494a29.9439,29.9439,0,0,1,3.4531-5.2876,14.4645,14.4645,0,0,1,3.5782-3.11,16.0249,16.0249,0,0,1,4.5195-1.7422,44.3155,44.3155,0,0,1,6.3408-.9331q3.7017-.309,8.9776-.9331-2.26,4.4795-3.83,7.4029a34.2658,34.2658,0,0,1-3.0762,4.852,11.7017,11.7017,0,0,1-3.3271,2.9863,19.2252,19.2252,0,0,1-4.52,1.8037q-2.7012.7472-6.6543,1.4312Q262.7354,140.3058,256.96,141.3008Z"/><path class="cls-1" d="M252,207c1.6758-3.4839,8.5361-16.5962,10.4189-20.4121q2.8257-5.721,5.7129-11.5083,2.8872-5.7853,5.7129-11.5088,2.8257-5.721,5.4619-10.9482a129.2731,129.2731,0,0,1,9.7305-16.7964,44.61,44.61,0,0,1,9.416-10.0777,28.0558,28.0558,0,0,1,10.2334-4.9145,51.9236,51.9236,0,0,1,12.1787-1.3062q6.1494,0,9.4795,2.1153a8.9342,8.9342,0,0,1,4.1436,5.1006,9.4631,9.4631,0,0,1-.6279,6.3452,14.5916,14.5916,0,0,1-4.709,5.8476,20.3114,20.3114,0,0,1-8.0977,3.5459,22.8867,22.8867,0,0,1-10.86-.56,44.5832,44.5832,0,0,0,5.6494-6.5323,40.6764,40.6764,0,0,0,3.8926-6.5937,16.652,16.652,0,0,0,1.5693-5.1636q.1875-2.1138-1.0674-2.1147a6.5314,6.5314,0,0,0-3.39,1.5551,28.7042,28.7042,0,0,0-4.96,5.0386,85.4994,85.4994,0,0,0-6.34,9.269q-3.5172,5.7855-7.6592,14.1211-2.1372,4.2312-4.583,9.3936-2.4478,5.1644-5.1475,10.7-2.7012,5.5379-5.4619,11.1973C280.8545,186.5684,271.7578,203.5161,270,207m2.1582-51.2437,2.7627-4.8525h48.2627l-2.6357,4.8525Z"/><path class="cls-1" d="M293.4922,175.6392q2.0068-3.98,3.8926-7.9,1.8837-3.9192,3.5156-7.1538,1.7563-3.7324,3.5156-7.0918l19.8379-2.7369q-1.5073,3.1114-3.3906,7.0914-1.6333,3.36-3.9551,7.9628-2.3247,4.6041-5.21,10.2022-2.89,5.5986-4.583,9.269-1.6947,3.671-2.4482,5.8472a5.886,5.886,0,0,0-.502,3.0483,1.2485,1.2485,0,0,0,1.3809.8711q2.1329,0,5.0225-2.8618a50.5315,50.5315,0,0,0,5.3984-6.3452q3.0132-4.1052,6.1523-9.2065a58.1275,58.1275,0,0,1-6.5293,11.9438,43.8722,43.8722,0,0,1-3.6406,4.3545,27.8478,27.8478,0,0,1-4.457,3.7944,22.4794,22.4794,0,0,1-5.2734,2.6753,17.798,17.798,0,0,1-5.9639.9951q-5.9034,0-7.7842-2.3637a7.7008,7.7008,0,0,1-1.4443-5.9722,27.9069,27.9069,0,0,1,2.4482-8.0244Q291.4815,179.6225,293.4922,175.6392Z"/><path class="cls-1" d="M337.8115,198.2832a27.9831,27.9831,0,0,0,15.6319-4.728,68.0291,68.0291,0,0,0,13.999-12.5659,45.143,45.143,0,0,1-6.09,7.4028,46.3343,46.3343,0,0,1-7.9091,6.2827,41.1782,41.1782,0,0,1-9.2911,4.3545,32.7815,32.7815,0,0,1-10.2334,1.6177q-8.1621,0-12.3037-3.67a13.8032,13.8032,0,0,1-4.7089-9.2691,24.9108,24.9108,0,0,1,2.0722-12.0058,39.3754,39.3754,0,0,1,7.9092-12.0064,43.6484,43.6484,0,0,1,12.8066-9.269,37.9251,37.9251,0,0,1,16.8252-3.67q6.2769,0,9.48,2.4258a9.3862,9.3862,0,0,1,3.8291,5.8477,12.8866,12.8866,0,0,1-1.0049,7.34,18.2074,18.2074,0,0,1-5.0214,6.8433,21.2067,21.2067,0,0,1-8.35,4.292,20.6893,20.6893,0,0,1-10.9863-.2486,39.3223,39.3223,0,0,0,5.8379-7.1538,57.1188,57.1188,0,0,0,4.3945-8.0249,28.091,28.091,0,0,0,2.1348-6.5942q.438-2.735-.8164-2.7373-1.7592,0-5.0215,3.3594a65.4239,65.4239,0,0,0-6.78,8.46,107.2,107.2,0,0,0-6.5918,10.9482,57.1942,57.1942,0,0,0-4.5195,10.9488,16.9588,16.9588,0,0,0-.6279,8.46Q333.29,198.2827,337.8115,198.2832Z"/><path class="cls-1" d="M46,282.52l40.5352-82.247,19.7026-2.6128-41.79,84.86Zm41.9155-72.79a29.2627,29.2627,0,0,0-11.1689,4.48,33.359,33.359,0,0,0-4.33,3.67,29,29,0,0,0-4.0786,5.1641,36.6765,36.6765,0,0,0-3.3257,6.9052,45.3188,45.3188,0,0,0-2.1963,9.0215,21.5563,21.5563,0,0,1-8.4707-1.4306,11.169,11.169,0,0,1-4.9575-3.795,8.3461,8.3461,0,0,1-1.4429-5.413,12.9082,12.9082,0,0,1,2.3218-6.2832,25.5027,25.5027,0,0,1,5.8355-6.4083,29.1114,29.1114,0,0,1,7.7177-4.1684,55.7827,55.7827,0,0,1,9.8516-2.5508q5.4587-.9331,12.2358-1.68Zm36.6451-2.6128L122.9282,210.6H93.437l.6275-3.4839Z"/><path class="cls-1" d="M76.9956,282.52l23.3423-47.0341,19.8281-2.7374L95.5688,282.52Zm53.21-49.7715q6.4,0,8.7216,2.1778a6.7409,6.7409,0,0,1,2.1963,5.4131,18.0621,18.0621,0,0,1-1.9453,7.0293q-1.8209,3.7983-3.6391,7.03-1.8209,3.2373-2.8868,5.4131-1.0671,2.1783.314,2.1778a7.8773,7.8773,0,0,0,4.5806-1.8047,34.9691,34.9691,0,0,0,4.5805-4.044,62.9458,62.9458,0,0,0,4.7691-5.9726,43.814,43.814,0,0,1-6.024,8.5859,35.2283,35.2283,0,0,1-7.3417,5.91,18.8128,18.8128,0,0,1-10.1021,2.6748q-5.1474,0-6.84-1.99a6.07,6.07,0,0,1-1.2549-5.039,23.0911,23.0911,0,0,1,2.1338-6.5948q1.6941-3.5463,3.3252-6.5947a37.0206,37.0206,0,0,0,2.3217-5.04q.6885-1.9878-.9409-1.99a6.6852,6.6852,0,0,0-4.518,2.1153,30.033,30.033,0,0,0-4.0157,4.6035,45.6923,45.6923,0,0,0-3.8906,6.5947,25.4863,25.4863,0,0,1-2.1333,2.5508q-1.1294,1.1836-1.9453,2.0527a7.3408,7.3408,0,0,1-1.3179,1.1827q-.5023.312-.251-.1866a74.3382,74.3382,0,0,1,5.271-9.83,59.4687,59.4687,0,0,1,6.4-8.3995,32.0766,32.0766,0,0,1,7.0279-5.8476A14.2813,14.2813,0,0,1,130.2061,232.748Z"/><path class="cls-1" d="M156.6836,276.7959a4.1122,4.1122,0,0,0,2.5727-1.3066,25.26,25.26,0,0,0,3.0118-3.3594q1.5681-2.0538,3.2632-4.7285t3.3256-5.5371q3.7647-6.5933,7.9063-14.9317-.5033,1.9922-1.5689,5.3506-1.0678,3.36-2.7607,7.3418T168.543,267.65a42.1612,42.1612,0,0,1-5.02,7.3408,25.7484,25.7484,0,0,1-6.2124,5.3506,14.0209,14.0209,0,0,1-7.4043,2.0537q-6.15,0-8.91-3.6709a14.322,14.322,0,0,1-2.6353-9.208,32.8845,32.8845,0,0,1,2.8238-11.9453,44.9841,44.9841,0,0,1,7.4668-11.9443,41.1616,41.1616,0,0,1,11.42-9.2081,29.638,29.638,0,0,1,14.5571-3.6709,15.0229,15.0229,0,0,1,7.4043,1.68,16.6736,16.6736,0,0,1,4.769,3.795,14.9458,14.9458,0,0,1,3.1372,5.4755l-2.0078.7461a15.4953,15.4953,0,0,0-2.2588-3.9814,15.265,15.265,0,0,0-2.6982-2.7373,5.2794,5.2794,0,0,0-3.3257-1.2442q-3.2651,0-6.9023,2.9864a43.6209,43.6209,0,0,0-7.0279,7.4648,70.9365,70.9365,0,0,0-6.1489,9.7061,60.9759,60.9759,0,0,0-4.2041,9.7051,22.19,22.19,0,0,0-1.3179,7.4658Q154.1722,276.7964,156.6836,276.7959Zm14.6831-19.1621q1.8824-3.98,3.8276-7.9014,1.9438-3.9185,3.5767-7.1543,1.8824-3.7325,3.5137-7.0927l19.8286-2.7374q-1.6326,3.1115-3.5142,7.0928-1.7585,3.3589-3.9531,7.9629-2.1966,4.6055-5.0825,10.2031-2.8879,5.6-4.5806,9.2705t-2.4473,5.8477a5.8926,5.8926,0,0,0-.5019,3.0488,1.2493,1.2493,0,0,0,1.3809.8711q2.132,0,5.0195-2.8623a50.4414,50.4414,0,0,0,5.3965-6.3457q3.0117-4.106,6.1494-9.208a54.7956,54.7956,0,0,1-6.6514,11.9453,43.9984,43.9984,0,0,1-3.64,4.3555,27.8666,27.8666,0,0,1-4.4551,3.7949,22.4444,22.4444,0,0,1-5.27,2.6748,17.7694,17.7694,0,0,1-5.9614.9961q-5.9,0-7.7808-2.3643a7.52,7.52,0,0,1-1.38-5.9726,29.5005,29.5005,0,0,1,2.51-8.0254Q169.3565,261.6168,171.3667,257.6338Z"/><path class="cls-1" d="M212.6538,276.7959a4.0655,4.0655,0,0,0,2.4478-1.3066,28.5557,28.5557,0,0,0,3.0742-3.3594,54.4994,54.4994,0,0,0,3.3252-4.7285q1.6949-2.6735,3.3261-5.5371,3.7647-6.5933,7.9063-14.9317-.5025,1.9922-1.6318,5.3506-1.1295,3.36-2.7608,7.3418a81.9513,81.9513,0,0,1-3.8271,8.0254,42.143,42.143,0,0,1-5.02,7.3408,25.7407,25.7407,0,0,1-6.2119,5.3506,14.0212,14.0212,0,0,1-7.4043,2.0537q-6.15,0-8.91-3.6709a14.322,14.322,0,0,1-2.6353-9.208,33.619,33.619,0,0,1,2.7608-11.9453,43.7425,43.7425,0,0,1,7.4043-11.9443,41.1616,41.1616,0,0,1,11.42-9.2081,29.6372,29.6372,0,0,1,14.5576-3.6709,14.6615,14.6615,0,0,1,7.3408,1.68,16.9435,16.9435,0,0,1,4.7061,3.795,16.5,16.5,0,0,1,3.2637,5.4755l-2.0079.7461a18.7715,18.7715,0,0,0-2.3847-3.9814,16.36,16.36,0,0,0-2.6358-2.7373,5.03,5.03,0,0,0-3.2627-1.2442q-3.2651,0-6.9023,2.9864a43.58,43.58,0,0,0-7.0273,7.4648,66.9019,66.9019,0,0,0-6.087,9.7061,69.8793,69.8793,0,0,0-4.2041,9.7051,20.3024,20.3024,0,0,0-1.3178,7.4658Q210.1439,276.7964,212.6538,276.7959Zm14.5581-19.1621q1.002-1.9893,2.6973-5.4746,1.6948-3.482,3.8281-7.7774,2.1328-4.2919,4.58-9.1445t4.832-9.5811C246.83,218.19,246.6484,219.5449,251,211h18c-4.1836,8.3794-2.2578,4.2871-6.0225,11.9189q-2.3847,4.8516-4.8945,9.8916t-4.831,9.7051q-2.3234,4.6671-4.33,8.71-2.0084,4.046-3.3877,6.7812-2.8887,5.6-4.6436,9.2705a59.3278,59.3278,0,0,0-2.51,5.8477,5.8875,5.8875,0,0,0-.502,3.0488,1.2479,1.2479,0,0,0,1.38.8711q2.1328,0,5.02-2.8623a50.4351,50.4351,0,0,0,5.3955-6.3457q3.0132-4.106,6.1494-9.208a58.1531,58.1531,0,0,1-6.5254,11.9453,43.9846,43.9846,0,0,1-3.64,4.3555,27.8229,27.8229,0,0,1-4.4551,3.7949,22.4444,22.4444,0,0,1-5.27,2.6748,17.7686,17.7686,0,0,1-5.9609.9961q-5.9,0-7.7813-2.3643a7.5163,7.5163,0,0,1-1.38-5.9726,29.4628,29.4628,0,0,1,2.51-8.0254Q225.3266,261.6168,227.2119,257.6338Z"/><path class="cls-1" d="M271.26,280.28a27.563,27.563,0,0,0,15.624-4.7285,69.78,69.78,0,0,0,13.8682-12.5674,40.3382,40.3382,0,0,1-5.962,7.4033,46.3455,46.3455,0,0,1-7.9062,6.2842,41.5736,41.5736,0,0,1-9.2236,4.3545,32.1615,32.1615,0,0,1-10.1651,1.6172q-8.1591,0-12.2988-3.67a13.8114,13.8114,0,0,1-4.7061-9.27,24.9272,24.9272,0,0,1,2.0713-12.0068,39.36,39.36,0,0,1,7.9063-12.0078,43.6074,43.6074,0,0,1,12.8-9.27,37.8776,37.8776,0,0,1,16.8164-3.6709q6.2739,0,9.5381,2.3643a8.6835,8.6835,0,0,1,3.7646,5.9727,13.3549,13.3549,0,0,1-1.7568,7.9638,27.6879,27.6879,0,0,1-7.1533,8.3985,49.5787,49.5787,0,0,1-12.1729,7.1543,63.7527,63.7527,0,0,1-16.9424,4.3554q-1.6319-.621-.94-1.2441a2.9152,2.9152,0,0,1,1.5684-.7471,14.1894,14.1894,0,0,0,6.84-2.9238,37.3255,37.3255,0,0,0,6.4629-6.1592,67.4915,67.4915,0,0,0,5.5215-7.6523,54.6174,54.6174,0,0,0,3.9531-7.4659,23.6868,23.6868,0,0,0,1.7568-5.7236q.312-2.3013-1.0664-2.3017-1.7592,0-5.0195,3.3593a65.4672,65.4672,0,0,0-6.7773,8.461,107.2832,107.2832,0,0,0-6.5879,10.95,57.1478,57.1478,0,0,0-4.5186,10.9492,16.9708,16.9708,0,0,0-.6269,8.4609Q266.7411,280.28,271.26,280.28Z"/><path class="cls-1" d="M289.709,282.52l23.3418-47.0341,19.8281-2.7374L308.2822,282.52Zm53.21-49.7715q6.4,0,8.7217,2.1778a6.7441,6.7441,0,0,1,2.1963,5.4131,18.0552,18.0552,0,0,1-1.9453,7.0293q-1.8208,3.7983-3.64,7.03-1.8209,3.2373-2.8858,5.4131-1.0679,2.1783.3135,2.1778a7.8736,7.8736,0,0,0,4.58-1.8047,34.9732,34.9732,0,0,0,4.581-4.044,62.9447,62.9447,0,0,0,4.7686-5.9726,43.7911,43.7911,0,0,1-6.0235,8.5859,35.2264,35.2264,0,0,1-7.3418,5.91,18.8115,18.8115,0,0,1-10.1025,2.6748q-5.1474,0-6.8389-1.99a6.0648,6.0648,0,0,1-1.2548-5.039,23.0991,23.0991,0,0,1,2.1328-6.5948q1.6947-3.5463,3.3261-6.5947a37.06,37.06,0,0,0,2.3213-5.04q.6885-1.9878-.9414-1.99a6.6855,6.6855,0,0,0-4.5176,2.1153,30.0649,30.0649,0,0,0-4.0156,4.6035,45.6923,45.6923,0,0,0-3.8906,6.5947,25.5579,25.5579,0,0,1-2.1338,2.5508q-1.1293,1.1836-1.9443,2.0527a7.3571,7.3571,0,0,1-1.3184,1.1827q-.5025.312-.251-.1866a74.1664,74.1664,0,0,1,5.2715-9.83,59.4648,59.4648,0,0,1,6.3994-8.3995,32.1037,32.1037,0,0,1,7.0283-5.8476A14.2842,14.2842,0,0,1,342.9189,232.748Z"/><path class="cls-1" d="M398.1462,237.0216a7.1235,7.1235,0,0,0-3.7176-3.55,18.6927,18.6927,0,0,0-8.202-1.4488,49.4492,49.4492,0,0,0-14.2809,1.9195,21.4629,21.4629,0,0,0-9.7954,5.6145,11.8677,11.8677,0,0,0-3.1271,9.0918q.2961,5.396,5.6058,12.3514l.0127-.0013c.1064.3267.2131.6536.3048.97a28.4419,28.4419,0,0,1,1.3445,8.7189,11.9978,11.9978,0,0,1-1.6134,5.98,12.299,12.299,0,0,1-7.1938,5.57,12.3083,12.3083,0,0,1-3.16.5474q-1.8834,0-2.3532-1.2324a4.9013,4.9013,0,0,1,.068-3.1041,18.0042,18.0042,0,0,1,1.8154-4.0628,29.1584,29.1584,0,0,1,2.89-4.1087,21.0031,21.0031,0,0,1,3.362-3.2409,6.9777,6.9777,0,0,1,3.093-1.5062,26.9577,26.9577,0,0,0-11.0266-.7309,20.55,20.55,0,0,0-8,2.9221,11.771,11.771,0,0,0-4.4376,4.9757,7.2368,7.2368,0,0,0-.3359,5.5232,8.5681,8.5681,0,0,0,4.2357,4.474q3.2928,1.8273,9.3451,1.8258a51.3057,51.3057,0,0,0,16.271-2.419,24.0457,24.0457,0,0,0,11.1605-7.076,15.9538,15.9538,0,0,0,3.5629-11.4583c-.225-4.5335.06-4.7228-3.9736-10.5662l-3-4a12.1733,12.1733,0,0,1-2.4571-6.0023,8.8385,8.8385,0,0,1,1.4161-4.7446,10.3982,10.3982,0,0,1,2.95-2.9343,11.6117,11.6117,0,0,1,3.364-1.4851,11.8559,11.8559,0,0,1,2.7735-.4344q1.6532,0,2.0655.978a3.5368,3.5368,0,0,1-.06,2.4629,13.6422,13.6422,0,0,1-1.5934,3.2238,23.2681,23.2681,0,0,1-2.5366,3.26,17.7649,17.7649,0,0,1-2.9507,2.5715,6.4242,6.4242,0,0,1-2.7148,1.1952,26.0952,26.0952,0,0,0,9.6779.58,19.262,19.262,0,0,0,7.022-2.3186,9.716,9.716,0,0,0,3.8948-3.948A5.2406,5.2406,0,0,0,398.1462,237.0216Z"/></g></svg>